# xmcd
#
# Track frame offsets:
#	182
#	18400
#	35775
#	53252
#	66950
#	79760
#	95242
#	106915
#	120975
#	135465
#	147852
#	158465
#	171840
#	186275
#	200500
#	214822
#	227850
#	243887
#	258670
#	274687
#	288910
#	303160
#	319357
#
# Disc length: 4437 seconds
#
# Revision: 4
# Processed by: cddbd v1.5.1PL2 Copyright (c) Steve Scherf et al.
# Submitted via: EasyCDDAExtractor 9.1.3.1
#
DISCID=46115317
DTITLE=John Lee Hooker - The Complete John Lee Hooker, Vol.1 (Detroit 1948-49)
DTITLE=Various Artist - Disc 1
DYEAR=2000
DGENRE=Blues
TTITLE0=Rocks
TTITLE1=Leavin' Chicago
TTITLE2=Wednesday Evening Blues
TTITLE3=Shake Your Boogie
TTITLE4=Poor Slim
TTITLE5=Poor Slim (Alt.)
TTITLE6=Down So Long
TTITLE7=Sally Mae
TTITLE8=Sally Mae (Alt.)
TTITLE9=War Is Over
TTITLE10=See, See Baby
TTITLE11=She Was In Chicago
TTITLE12=Crazy 'Bout That Woman
TTITLE13=Boogie Chillen
TTITLE14=Henry's Swing Club
TTITLE15=Johhny Lee's Original Boogie
TTITLE16=Good Business
TTITLE17=Mercy Blues
TTITLE18=Boogie Woogie
TTITLE19=Stomp Boogie
TTITLE20=Who's Been Jiving You
TTITLE21=Black Man Blues
TTITLE22=Poor Joe
EXTD=YEAR: 2000
EXTT0=
EXTT1=
EXTT2=
EXTT3=
EXTT4=
EXTT5=
EXTT6=
EXTT7=
EXTT8=
EXTT9=
EXTT10=
EXTT11=
EXTT12=
EXTT13=
EXTT14=
EXTT15=
EXTT16=
EXTT17=
EXTT18=
EXTT19=
EXTT20=
EXTT21=
EXTT22=
PLAYORDER=
